<svg width="24" height="24" viewBox="0 0 24 24" fill="none" xmlns="http://www.w3.org/2000/svg">
<path d="M6.04797 13.752C6.04797 13.048 6.23997 12.24 6.62397 11.328C7.00797 10.416 7.50397 9.52801 8.11197 8.68001C9.35997 7.03201 10.448 5.78401 11.36 4.94401L11.96 4.36801C12.16 4.57601 12.384 4.76801 12.624 4.94401C12.952 5.28001 13.456 5.83201 14.128 6.61601C14.8 7.40001 15.384 8.09601 15.864 8.73601C16.432 9.54401 16.92 10.416 17.312 11.336C17.704 12.256 17.904 13.064 17.904 13.76C17.904 14.56 17.752 15.32 17.44 16.048C17.128 16.776 16.712 17.408 16.184 17.936C15.656 18.464 15.024 18.888 14.288 19.2C13.552 19.512 12.776 19.672 11.96 19.672C11.16 19.672 10.4 19.52 9.67197 19.216C8.94397 18.912 8.31197 18.504 7.78397 17.976C7.25597 17.456 6.83197 16.824 6.51997 16.096C6.20797 15.368 6.04797 14.584 6.04797 13.752V13.752ZM7.85597 11.408C7.85597 12.072 7.99197 12.6 8.27197 13C8.55197 13.392 8.97597 13.592 9.54397 13.592C10.12 13.592 10.544 13.392 10.832 13C11.112 12.608 11.256 12.08 11.264 11.408C11.256 10.736 11.112 10.208 10.832 9.80801C10.552 9.41601 10.12 9.21601 9.54397 9.21601C8.97597 9.21601 8.55197 9.41601 8.27197 9.80801C7.99197 10.208 7.85597 10.736 7.85597 11.408V11.408ZM9.11197 11.408V11.128C9.11197 11.064 9.11997 10.976 9.12797 10.864C9.13597 10.752 9.14397 10.664 9.16797 10.608C9.19197 10.552 9.20797 10.48 9.23997 10.416C9.27197 10.352 9.31197 10.296 9.35997 10.272C9.41597 10.24 9.47197 10.224 9.54397 10.224C9.65597 10.224 9.74397 10.256 9.80797 10.32C9.87197 10.384 9.91997 10.488 9.94397 10.624C9.96797 10.768 9.98397 10.88 9.99197 10.984C9.99997 11.088 9.99997 11.224 9.99997 11.4C9.99997 11.584 9.99997 11.72 9.99197 11.816C9.98397 11.912 9.96797 12.032 9.94397 12.176C9.91997 12.312 9.87197 12.416 9.80797 12.48C9.74397 12.544 9.65597 12.576 9.54397 12.576C9.47197 12.576 9.41597 12.56 9.35997 12.528C9.30394 12.496 9.26134 12.4449 9.23997 12.384C9.20797 12.32 9.18397 12.248 9.16797 12.192C9.15197 12.128 9.13597 12.04 9.12797 11.936C9.11997 11.824 9.11197 11.736 9.11197 11.68V11.408V11.408ZM9.58397 17.608H10.64L14.632 9.01601H13.552L9.58397 17.608V17.608ZM13.024 15.216C13.032 15.888 13.184 16.416 13.464 16.816C13.744 17.208 14.176 17.408 14.744 17.408C15.32 17.408 15.744 17.208 16.024 16.816C16.304 16.424 16.44 15.888 16.448 15.216C16.44 14.544 16.304 14.016 16.024 13.624C15.744 13.232 15.32 13.032 14.744 13.032C14.176 13.032 13.744 13.232 13.464 13.624C13.176 14.016 13.032 14.544 13.024 15.216ZM14.28 15.216C14.28 15.032 14.28 14.896 14.288 14.8C14.296 14.704 14.312 14.584 14.336 14.44C14.36 14.296 14.408 14.2 14.472 14.136C14.536 14.072 14.624 14.04 14.736 14.04C14.808 14.04 14.872 14.056 14.928 14.088C14.984 14.12 15.024 14.168 15.056 14.24C15.088 14.312 15.112 14.376 15.136 14.432C15.16 14.488 15.168 14.576 15.176 14.688L15.184 14.944V15.496L15.176 15.752L15.136 16.008L15.056 16.2L14.928 16.352L14.736 16.4C14.624 16.4 14.536 16.368 14.472 16.304C14.408 16.24 14.36 16.136 14.336 16C14.312 15.856 14.296 15.736 14.288 15.64C14.28 15.544 14.28 15.4 14.28 15.216Z" fill="#259AF9"/>
</svg>
