<svg width="18" height="18" viewBox="0 0 18 18" fill="none" xmlns="http://www.w3.org/2000/svg">
<path d="M9 1.125C11.0886 1.125 13.0916 1.95469 14.5685 3.43153C16.0453 4.90838 16.875 6.91142 16.875 9C16.875 11.0886 16.0453 13.0916 14.5685 14.5685C13.0916 16.0453 11.0886 16.875 9 16.875C6.91142 16.875 4.90838 16.0453 3.43153 14.5685C1.95469 13.0916 1.125 11.0886 1.125 9C1.125 6.91142 1.95469 4.90838 3.43153 3.43153C4.90838 1.95469 6.91142 1.125 9 1.125V1.125Z" fill="#CCCCCC"/>
<path d="M5.0625 9.00001C5.0625 9.17903 5.13362 9.35072 5.2602 9.47731C5.38679 9.6039 5.55848 9.67501 5.7375 9.67501H12.2625C12.4415 9.67501 12.6132 9.6039 12.7398 9.47731C12.8664 9.35072 12.9375 9.17903 12.9375 9.00001C12.9375 8.82099 12.8664 8.6493 12.7398 8.52272C12.6132 8.39613 12.4415 8.32501 12.2625 8.32501H5.7375C5.64886 8.32501 5.56108 8.34247 5.47919 8.37639C5.39729 8.41032 5.32288 8.46004 5.2602 8.52272C5.19752 8.58539 5.1478 8.65981 5.11388 8.7417C5.07996 8.8236 5.0625 8.91137 5.0625 9.00001V9.00001Z" fill="white"/>
</svg>
