<svg width="18" height="18" viewBox="0 0 18 18" fill="none" xmlns="http://www.w3.org/2000/svg">
<path d="M14.625 0C12.7652 0 11.25 1.51523 11.25 3.375C11.25 5.23477 12.7652 6.75 14.625 6.75C16.4848 6.75 18 5.23477 18 3.375C18 1.51523 16.4848 0 14.625 0ZM14.625 4.5C14.0027 4.5 13.5 3.99727 13.5 3.375C13.5 2.75273 14.0027 2.25 14.625 2.25C15.2473 2.25 15.75 2.75273 15.75 3.375C15.75 3.99727 15.2473 4.5 14.625 4.5ZM9 3.9375C9 1.76133 7.23867 0 5.0625 0C2.88633 0 1.125 1.76133 1.125 3.9375V9.79102C0.432422 10.6594 0 11.7422 0 12.9375C0 15.7324 2.26758 18 5.0625 18C7.85742 18 10.125 15.7324 10.125 12.9375C10.125 11.7422 9.69258 10.6559 9 9.79102V3.9375Z" fill="#259AF9"/>
<path d="M5.0625 15.75C3.51211 15.75 2.25 14.4879 2.25 12.9375C2.25 12.041 2.67891 11.2184 3.375 10.6945V3.9375C3.375 3.00586 4.13086 2.25 5.0625 2.25C5.99414 2.25 6.75 3.00586 6.75 3.9375V10.6945C7.44609 11.2148 7.875 12.041 7.875 12.9375C7.875 14.4879 6.61289 15.75 5.0625 15.75ZM5.625 11.352V10.6875C5.625 10.3781 5.37188 10.125 5.0625 10.125C4.75312 10.125 4.5 10.3781 4.5 10.6875V11.352C3.84609 11.584 3.375 12.2027 3.375 12.9375C3.375 13.8691 4.13086 14.625 5.0625 14.625C5.99414 14.625 6.75 13.8691 6.75 12.9375C6.75 12.2027 6.27891 11.584 5.625 11.352Z" fill="white"/>
</svg>
